<svg width="188" height="151" viewBox="0 0 188 151" fill="none" xmlns="http://www.w3.org/2000/svg">
<path d="M69.335 106.616C70.0798 106.616 70.493 106.696 71.0059 106.933C71.381 107.107 71.9272 107.459 72.2178 107.715C72.5084 107.973 72.9931 108.611 73.2959 109.136C73.8157 110.038 73.8476 110.163 73.9062 111.453C73.9526 112.459 73.9094 113.047 73.7402 113.701C73.6134 114.188 73.2515 115.078 72.9336 115.678C72.617 116.277 72.0093 117.242 71.5811 117.824C71.1527 118.405 69.89 119.907 68.7754 121.163C67.6622 122.418 66.2644 123.905 65.6709 124.468C65.0775 125.029 64.2548 125.774 63.8428 126.121C63.4308 126.47 62.4798 127.168 61.7295 127.677C60.9791 128.185 59.812 128.863 59.1367 129.182C58.4614 129.502 57.7313 129.814 57.1201 129.987L57.2158 131.146C57.269 131.782 57.4263 132.886 57.5654 133.599C57.7032 134.31 58.0236 135.384 58.2773 135.983C58.531 136.583 58.9594 137.471 59.2295 137.959C59.4996 138.445 60.062 139.274 60.4795 139.799C60.8969 140.323 61.5008 140.974 61.8242 141.245C62.1476 141.516 62.8108 141.956 63.2979 142.223C63.7863 142.488 64.5235 142.804 64.9355 142.923C65.349 143.043 66.1155 143.14 66.6406 143.14C67.1659 143.14 67.9639 143.047 68.4141 142.934C68.8643 142.82 69.8464 142.425 70.5967 142.055C71.347 141.685 72.2385 141.204 73.1895 140.588L72.8809 139.308C72.7103 138.604 72.5188 137.506 72.4561 136.869C72.3933 136.231 72.3669 135.22 72.3955 134.62C72.4242 134.021 72.5096 133.131 72.5859 132.645C72.6623 132.157 72.9418 131.114 73.2051 130.328C73.4684 129.54 73.9503 128.345 74.2764 127.67C74.601 126.995 75.2503 125.861 75.7168 125.149C76.1834 124.437 76.9765 123.363 77.4785 122.764C77.9806 122.164 78.7093 121.397 79.0967 121.061C79.4855 120.723 80.1879 120.215 80.6572 119.93C81.1265 119.645 81.9415 119.284 82.4668 119.127C83.1801 118.913 83.6126 118.862 84.1719 118.925C84.641 118.978 85.1483 119.151 85.5234 119.387C85.855 119.595 86.3343 120.072 86.5908 120.447C86.8459 120.822 87.1512 121.465 87.2686 121.878C87.4323 122.45 87.4649 122.996 87.4062 124.195C87.3571 125.209 87.2253 126.122 87.0303 126.784C86.8652 127.346 86.4542 128.45 86.1172 129.237C85.7802 130.024 85.226 131.159 84.8877 131.759C84.548 132.358 83.9646 133.308 83.5908 133.871C83.217 134.433 82.4651 135.446 81.918 136.12C81.3722 136.795 80.2587 137.991 79.4443 138.78C78.6299 139.569 77.5791 140.521 76.2559 141.571L76.8154 142.593C77.1238 143.154 77.6615 143.944 78.0107 144.346C78.4759 144.881 78.921 145.209 79.6699 145.568C80.6259 146.029 80.7737 146.058 81.9209 146.042C82.7666 146.03 83.446 145.932 84.1035 145.724C84.6288 145.559 85.5199 145.192 86.082 144.908C86.6456 144.626 87.8419 143.908 88.7422 143.312C89.6425 142.717 91.0079 141.729 91.7773 141.117C92.5468 140.504 93.6757 139.528 94.2842 138.947C94.894 138.365 95.7629 137.431 96.2158 136.869C96.6687 136.306 97.1817 135.541 97.3564 135.166C97.5297 134.791 97.711 134.208 97.7588 133.871C97.8052 133.533 97.7753 133.013 97.6895 132.713C97.6049 132.413 97.3686 131.965 97.1641 131.717C96.9444 131.451 96.5945 131.217 96.3135 131.15C96.0448 131.086 95.5978 131.091 95.291 131.16C94.969 131.234 94.4513 131.537 94.0283 131.896C93.5948 132.267 93.1791 132.508 92.9717 132.508C92.7658 132.508 92.4287 132.313 92.1191 132.017C91.6513 131.567 91.6149 131.482 91.709 131.028C91.7704 130.733 92.0176 130.322 92.3232 130.013C92.6043 129.728 93.2331 129.298 93.7188 129.059C94.394 128.726 94.8294 128.612 95.5605 128.572C96.2316 128.535 96.7421 128.594 97.2686 128.766C97.7651 128.928 98.2496 129.228 98.7012 129.65C99.1405 130.063 99.5246 130.602 99.7783 131.162C100.058 131.779 100.192 132.328 100.239 133.054C100.288 133.789 100.241 134.305 100.07 134.894C99.9393 135.343 99.6785 136.018 99.4902 136.393C99.3006 136.767 98.8528 137.471 98.4941 137.959C98.1353 138.446 97.1151 139.553 96.2256 140.417C95.3361 141.281 93.9945 142.479 93.2441 143.077C92.4938 143.677 91.2357 144.591 90.4473 145.11C89.66 145.63 88.3705 146.375 87.582 146.768C86.7949 147.16 85.751 147.61 85.2627 147.769C84.7756 147.927 83.9611 148.145 83.4551 148.254C82.9489 148.363 82.1509 148.453 81.6816 148.454C81.2124 148.454 80.4925 148.392 80.0791 148.314C79.6671 148.238 78.96 148.001 78.5098 147.788C78.0595 147.577 77.3689 147.149 76.9746 146.838C76.5803 146.526 75.9763 145.888 75.6299 145.421C75.2847 144.952 74.8234 144.216 74.6064 143.785C74.39 143.354 74.1669 143.001 74.1104 142.998C74.0544 142.997 73.8553 143.147 73.667 143.332C73.4803 143.516 73.2497 143.641 73.1553 143.607C73.0611 143.575 72.9397 143.624 72.8838 143.718C72.8276 143.812 72.8286 143.84 72.8955 143.806L73.0732 143.696C73.1403 143.662 73.1413 143.69 73.085 143.785C73.029 143.878 72.9227 143.924 72.8477 143.888C72.7713 143.85 72.1729 144.088 71.5176 144.416C70.8614 144.744 69.8642 145.156 69.3008 145.329C68.4809 145.583 67.9667 145.646 66.709 145.645C65.5876 145.643 64.9065 145.572 64.3213 145.396C63.8711 145.26 63.1338 144.967 62.6836 144.745C62.2334 144.524 61.497 144.078 61.0469 143.757C60.5967 143.435 59.7981 142.719 59.2715 142.166C58.7463 141.614 58.032 140.733 57.6855 140.208C57.3377 139.683 56.824 138.794 56.543 138.232C56.2633 137.67 55.8288 136.596 55.5791 135.847C55.3295 135.097 55.03 133.901 54.9141 133.189C54.7982 132.477 54.7042 131.604 54.7041 131.248C54.7027 130.692 54.6685 130.612 54.4639 130.68C54.3318 130.723 53.5492 130.791 52.7246 130.833C51.8488 130.877 50.7137 130.839 49.9961 130.742C49.321 130.651 48.3704 130.453 47.8818 130.305C47.3948 130.155 46.5839 129.838 45.1719 129.169L44.2412 130.14C43.7296 130.672 42.82 131.427 42.2197 131.814C41.6194 132.203 40.6679 132.696 40.1045 132.911C39.5424 133.126 38.5904 133.431 37.9902 133.588C37.39 133.745 36.2553 133.958 35.4668 134.064C34.6796 134.169 32.6595 134.368 27.9268 134.757L27.9941 138.027C28.0487 140.694 28.1023 141.379 28.2852 141.741C28.408 141.984 28.6778 142.299 28.8838 142.438C29.0896 142.578 29.3811 142.729 29.5312 142.775C29.6813 142.82 30.0203 143.069 30.7598 143.794L29.5312 144.497L22.2324 144.464C15.579 144.435 14.8941 144.411 14.4902 144.194C14.246 144.062 14.0469 143.894 14.0469 143.819C14.0472 143.744 14.2263 143.514 14.4443 143.309C14.6613 143.101 15.0406 142.779 15.2861 142.593C15.5316 142.405 15.829 142.037 15.9463 141.775C16.1373 141.351 16.1659 139.613 16.1973 126.308C16.2164 118.063 16.1819 110.887 16.1191 110.362C16.0509 109.794 15.8941 109.243 15.7305 109C15.579 108.775 15.1584 108.437 14.7969 108.25C14.4355 108.062 14.0962 107.787 14.043 107.637C13.9898 107.487 13.9688 107.302 13.9961 107.228C14.025 107.153 14.197 106.999 14.3809 106.888C14.6687 106.711 15.8397 106.684 22.874 106.7C27.3608 106.71 31.4616 106.753 31.9873 106.797C32.5126 106.842 33.6495 107.003 34.5117 107.157C35.3751 107.311 36.4796 107.537 36.9668 107.658C37.4551 107.779 38.2532 108.028 38.7402 108.211C39.2286 108.392 40.1185 108.799 40.7188 109.115C41.319 109.43 42.1787 109.97 42.6289 110.313C43.0791 110.657 43.8432 111.36 44.3262 111.877C44.8077 112.393 45.4174 113.153 45.6807 113.565C45.944 113.977 46.3701 114.774 46.6279 115.337C46.8844 115.898 47.2234 116.85 47.3789 117.449C47.6067 118.328 47.6615 118.947 47.6602 120.651C47.6574 122.359 47.6004 122.991 47.3604 123.956C47.1966 124.612 46.91 125.547 46.7217 126.035C46.5349 126.521 46.4126 126.981 46.4492 127.057C46.4874 127.132 46.9932 127.371 47.5742 127.591C48.1554 127.809 49.0617 128.062 49.5869 128.152C50.1545 128.25 51.2897 128.295 52.3838 128.261C53.4491 128.228 54.3547 128.133 54.5322 128.038C54.7368 127.929 54.8388 127.75 54.8379 127.5C54.8365 127.293 54.9652 126.419 55.1221 125.558C55.2803 124.695 55.4569 123.898 55.5156 123.786C55.5743 123.673 55.7926 123.091 56 122.491C56.2074 121.892 56.621 120.849 56.917 120.175C57.213 119.5 57.7989 118.335 58.2178 117.585C58.6366 116.835 59.4073 115.578 59.9297 114.792C60.4536 114.004 61.4176 112.654 62.0752 111.793C62.7327 110.93 63.6362 109.827 64.0811 109.341C64.5257 108.853 65.3142 108.163 65.834 107.808C66.3524 107.452 67.1304 107.038 67.5615 106.888C68.0704 106.711 68.6937 106.615 69.335 106.616ZM133.286 113.99C133.699 113.981 134.559 114.037 135.196 114.114C135.835 114.193 136.847 114.387 137.447 114.548C138.048 114.707 138.939 114.998 139.426 115.197C139.914 115.396 140.742 115.836 141.268 116.176C141.793 116.516 142.614 117.187 143.092 117.667C143.569 118.147 144.225 118.937 144.549 119.425C144.871 119.911 145.325 120.755 145.556 121.299C145.786 121.841 146.074 122.7 146.195 123.207C146.315 123.713 146.423 124.709 146.434 125.422C146.443 126.133 146.406 126.883 146.35 127.091C146.281 127.341 146.088 127.534 145.77 127.67C145.363 127.843 144.109 127.875 129.467 127.875L129.551 128.931C129.599 129.511 129.746 130.417 129.878 130.941C130.012 131.466 130.285 132.263 130.485 132.713C130.686 133.163 131.115 133.898 131.437 134.348C131.758 134.797 132.43 135.549 132.928 136.018C133.426 136.485 134.277 137.114 134.821 137.414C135.365 137.714 136.286 138.113 136.867 138.3C137.448 138.486 138.524 138.709 139.255 138.792C140.308 138.913 140.842 138.907 141.813 138.76C142.489 138.658 143.604 138.572 144.292 138.572C144.98 138.572 145.58 138.602 145.624 138.641C145.669 138.678 145.53 139.107 145.314 139.595C145.014 140.272 144.686 140.704 143.914 141.438C143.359 141.963 142.629 142.585 142.291 142.819C141.954 143.054 141.185 143.491 140.585 143.794C139.985 144.095 138.941 144.506 138.266 144.708C137.269 145.005 136.667 145.087 135.06 145.146C133.59 145.2 132.748 145.162 131.785 145C131.073 144.88 129.937 144.623 129.262 144.43C128.587 144.238 127.42 143.782 126.67 143.418C125.92 143.053 124.906 142.45 124.418 142.079C123.931 141.71 123.132 140.984 122.643 140.466C122.153 139.949 121.429 139.005 121.035 138.368C120.641 137.731 120.129 136.72 119.897 136.12C119.666 135.52 119.335 134.477 119.163 133.803C118.991 133.128 118.783 131.902 118.7 131.077C118.618 130.253 118.585 128.995 118.626 128.283C118.668 127.57 118.847 126.344 119.024 125.558C119.202 124.77 119.579 123.575 119.864 122.9C120.149 122.226 120.736 121.152 121.17 120.516C121.602 119.878 122.297 118.989 122.713 118.539C123.128 118.089 123.466 117.675 123.465 117.619C123.465 117.562 123.51 117.531 123.565 117.55C123.621 117.568 124.068 117.301 124.555 116.956C125.043 116.611 125.719 116.169 126.056 115.976C126.394 115.781 127.13 115.434 127.692 115.202C128.256 114.972 129.146 114.664 129.671 114.517C130.196 114.371 131.056 114.196 131.581 114.129C132.106 114.062 132.874 114 133.286 113.99ZM168.145 114.042C168.67 114.073 169.529 114.231 170.054 114.394C170.579 114.557 171.164 114.788 171.351 114.906C171.539 115.026 171.928 115.31 172.214 115.537C172.502 115.763 172.958 116.286 173.227 116.699C173.495 117.111 173.805 117.756 173.914 118.131C174.022 118.506 174.106 119.241 174.1 119.766C174.094 120.29 174.007 120.995 173.907 121.333C173.808 121.67 173.567 122.222 173.375 122.56C173.183 122.896 172.724 123.436 172.358 123.759C171.991 124.08 171.354 124.472 170.94 124.626C170.395 124.83 169.855 124.91 168.963 124.915C167.975 124.92 167.629 124.867 167.189 124.64C166.889 124.483 166.481 124.181 166.283 123.969C166.085 123.755 165.803 123.337 165.654 123.037C165.507 122.737 165.255 122.046 165.094 121.504C164.93 120.947 164.638 120.329 164.427 120.088C164.116 119.734 163.948 119.659 163.438 119.65C163.079 119.644 162.668 119.736 162.448 119.872C162.242 120 161.989 120.274 161.886 120.481C161.783 120.687 161.663 121.07 161.616 121.333C161.571 121.595 161.496 125.949 161.452 131.009C161.392 137.737 161.412 140.391 161.528 140.89C161.614 141.264 161.819 141.751 161.981 141.972C162.145 142.194 162.646 142.545 163.097 142.754C163.547 142.961 164.088 143.272 164.686 143.751L164.164 144.069C163.876 144.245 163.397 144.408 163.097 144.432C162.797 144.456 159.574 144.479 155.934 144.483C149.631 144.492 149.29 144.479 148.737 144.223C148.264 144.005 148.179 143.911 148.275 143.718C148.341 143.586 148.583 143.324 148.813 143.138C149.044 142.95 149.4 142.674 149.607 142.524C149.813 142.374 150.077 142.037 150.191 141.775C150.37 141.365 150.405 140.009 150.435 132.235C150.454 127.227 150.412 122.715 150.343 122.15C150.265 121.525 150.115 120.995 149.958 120.788C149.816 120.6 149.461 120.314 149.168 120.151C148.875 119.989 148.526 119.744 148.394 119.606C148.26 119.469 148.15 119.264 148.151 119.152C148.152 119.039 148.322 118.786 148.529 118.59C148.816 118.319 150.213 117.798 154.325 116.434C157.303 115.444 159.881 114.654 160.054 114.679C160.224 114.703 160.439 114.876 160.532 115.064C160.624 115.251 160.797 116.109 160.916 116.972C161.035 117.833 161.148 118.601 161.168 118.676C161.188 118.751 161.458 118.383 161.765 117.858C162.072 117.334 162.559 116.633 162.847 116.303C163.135 115.972 163.707 115.473 164.119 115.193C164.532 114.913 165.115 114.586 165.415 114.465C165.715 114.344 166.238 114.185 166.575 114.114C166.914 114.043 167.619 114.011 168.145 114.042ZM114.322 106.071C114.511 106.066 114.769 106.169 114.896 106.303C115.112 106.529 115.132 107.774 115.169 123.923C115.206 139.324 115.234 141.351 115.422 141.775C115.539 142.037 115.847 142.419 116.104 142.623C116.362 142.826 116.65 142.995 116.744 142.998C116.838 142.999 117.007 143.186 117.119 143.411C117.232 143.636 117.326 143.865 117.329 143.922C117.332 143.978 117.133 144.112 116.886 144.221C116.515 144.381 115.253 144.419 109.752 144.429C103.599 144.441 103.026 144.423 102.556 144.198C102.275 144.065 102.044 143.894 102.044 143.819C102.044 143.744 102.25 143.483 102.501 143.24C102.752 142.996 103.132 142.674 103.346 142.524C103.558 142.374 103.814 142.052 103.912 141.81C104.055 141.454 104.091 138.563 104.091 127.193C104.091 115.767 104.056 112.934 103.91 112.577C103.806 112.321 103.387 111.871 102.921 111.514C102.269 111.014 102.112 110.819 102.112 110.506C102.112 110.252 102.229 110.031 102.453 109.863C102.642 109.723 105.312 108.816 108.388 107.846C111.462 106.876 114.132 106.078 114.322 106.071ZM83.3193 121.611C82.9714 121.615 82.4659 121.76 82.0566 121.973C81.6758 122.169 80.8304 122.876 80.1445 123.566C79.4679 124.249 78.5246 125.39 78.0498 126.103C77.5737 126.814 76.9543 127.889 76.6719 128.488C76.3895 129.088 75.9978 130.068 75.8027 130.668C75.6063 131.268 75.3529 132.311 75.2383 132.985C75.1223 133.66 75.0293 134.747 75.0293 135.404C75.0307 136.06 75.0994 137.041 75.1826 137.585C75.2645 138.127 75.3786 138.664 75.4346 138.777C75.5138 138.935 75.8085 138.733 76.751 137.879C77.418 137.274 78.4302 136.262 79.002 135.631C79.5722 135 80.4023 133.993 80.8457 133.394C81.2891 132.794 81.9669 131.782 82.3516 131.146C82.7349 130.508 83.2648 129.558 83.5254 129.033C83.7873 128.509 84.1567 127.65 84.3477 127.125C84.5373 126.6 84.7705 125.649 84.8633 125.013C84.967 124.311 84.9919 123.584 84.9277 123.173C84.8486 122.655 84.7105 122.384 84.3613 122.049C83.9835 121.686 83.7925 121.606 83.3193 121.611ZM29.2588 109.393C28.7345 109.348 28.2497 109.357 28.1787 109.415C28.105 109.478 28.0639 114.052 28.0762 120.674L28.0996 131.827C29.2098 131.824 29.8387 131.738 30.2139 131.635C30.5889 131.531 31.111 131.355 31.373 131.243C31.6364 131.131 32.1895 130.736 32.6016 130.364C33.0694 129.943 33.5398 129.335 33.8535 128.748C34.1291 128.229 34.5158 127.255 34.7109 126.58C34.9046 125.906 35.1502 124.832 35.2539 124.195C35.3576 123.558 35.4788 122.407 35.5225 121.64C35.5675 120.871 35.5387 119.613 35.4609 118.846C35.3818 118.077 35.1666 116.775 34.9824 115.95C34.7969 115.126 34.4571 114.052 34.2266 113.565C33.9974 113.078 33.5425 112.311 33.2178 111.861C32.8931 111.412 32.4229 110.847 32.1719 110.607C31.9208 110.368 31.3772 110.015 30.9639 109.824C30.5028 109.61 29.8467 109.444 29.2588 109.393ZM69.3008 109.238C68.781 109.208 68.3828 109.272 68.0049 109.448C67.7047 109.587 67.0372 110.095 66.5215 110.576C66.0044 111.057 65.0635 112.096 64.4277 112.884C63.7934 113.67 62.7009 115.173 62.001 116.223C61.3025 117.272 60.3974 118.774 59.9922 119.562C59.587 120.348 59.0054 121.636 58.7012 122.424C58.3956 123.21 58.0198 124.375 57.8643 125.013C57.7087 125.649 57.5478 126.401 57.5068 126.683L57.4316 127.193C58.3307 126.801 59.0207 126.423 59.5459 126.103C60.0711 125.782 60.9308 125.194 61.4561 124.795C61.9813 124.396 62.841 123.669 63.3662 123.18L65.2422 121.258C65.2613 121.292 66.0743 120.427 67.0498 119.335C68.0252 118.243 69.1763 116.882 69.6074 116.31C70.0372 115.736 70.5753 114.884 70.8018 114.417C71.0268 113.948 71.28 113.242 71.3633 112.85C71.4478 112.456 71.4778 111.828 71.4287 111.453C71.381 111.078 71.2153 110.556 71.0625 110.294C70.9097 110.031 70.6189 109.696 70.417 109.549C70.1864 109.378 69.7756 109.266 69.3008 109.238ZM133.764 115.892C133.378 115.893 132.846 116.009 132.536 116.157C132.236 116.3 131.744 116.624 131.444 116.875C131.087 117.175 130.702 117.727 130.327 118.48C130.013 119.111 129.654 119.998 129.53 120.447C129.403 120.909 129.267 122.114 129.215 123.218L129.125 125.172C135.516 125.083 135.746 125.063 136.107 124.796C136.319 124.639 136.58 124.332 136.687 124.114C136.849 123.783 136.854 123.507 136.721 122.457C136.633 121.763 136.467 120.721 136.351 120.141C136.235 119.559 136.005 118.624 135.84 118.062C135.613 117.284 135.41 116.903 134.994 116.464C134.491 115.937 134.39 115.889 133.764 115.892ZM142.836 57.1748C143.087 57.2021 143.259 57.3737 143.485 57.8262C143.77 58.3944 143.793 58.6124 143.787 60.8242C143.78 62.9106 143.81 63.249 144.024 63.5352C144.249 63.8349 144.356 63.8595 145.36 63.8418C146.45 63.8214 146.453 63.8225 146.966 64.332C147.285 64.6509 147.479 64.9729 147.48 65.1855C147.48 65.3954 147.294 65.7074 146.505 66.4795H143.859L143.817 76.9053C143.786 84.6052 143.819 87.5806 143.94 88.2852C144.069 89.0289 144.191 89.3204 144.494 89.6133C144.837 89.9431 144.988 89.9883 145.77 89.9883C146.258 89.9883 146.934 90.05 147.271 90.125C147.608 90.1999 147.885 90.2757 147.886 90.2949C147.887 90.3126 147.798 90.636 147.69 91.0107C147.546 91.5053 147.314 91.8613 146.837 92.3164C146.475 92.6598 145.918 93.0742 145.599 93.2363C145.279 93.3986 144.481 93.6937 143.825 93.8926C142.809 94.2005 142.368 94.2555 140.858 94.2637C139.414 94.2718 138.89 94.2173 138.027 93.9707C137.446 93.8044 136.602 93.4837 136.151 93.2588C135.701 93.0339 135.072 92.6115 134.753 92.3213C134.434 92.0296 134.008 91.4941 133.805 91.1289C133.601 90.7638 133.335 90.1589 133.209 89.7842C133.021 89.2172 132.962 88.1074 132.859 83.2422C132.791 80.0192 132.767 75.0057 132.806 72.1016C132.872 67.1368 132.863 66.8205 132.639 66.8242C132.508 66.8269 132.078 66.4907 131.684 66.0752C131.127 65.4894 130.966 65.2221 130.963 64.8789C130.96 64.6281 131.064 64.3318 131.202 64.1982C131.359 64.0457 131.928 63.8893 132.809 63.7559C133.559 63.6414 134.634 63.3943 135.196 63.209C135.76 63.0223 136.681 62.5987 137.243 62.2676C137.807 61.935 138.69 61.2448 139.21 60.7324C139.73 60.22 140.496 59.3139 140.915 58.7197C141.334 58.1244 141.861 57.5252 142.086 57.3887C142.311 57.2511 142.649 57.1559 142.836 57.1748ZM163.881 63.1543C164.762 63.1461 165.96 63.2073 166.541 63.2891C167.122 63.3708 168.121 63.5875 168.758 63.7715C169.396 63.9541 170.44 64.3524 171.077 64.6562C171.716 64.9601 172.691 65.5261 173.246 65.9131C173.8 66.2987 174.777 67.1682 175.414 67.8428C176.144 68.6141 176.855 69.5479 177.331 70.3643C177.747 71.0756 178.283 72.2102 178.523 72.8848C178.764 73.5592 179.071 74.6317 179.206 75.2695C179.381 76.094 179.453 77.0537 179.458 78.6084C179.463 79.8963 179.39 81.2064 179.279 81.8115C179.177 82.373 178.925 83.3544 178.718 83.9922C178.512 84.6286 178.111 85.61 177.829 86.1729C177.547 86.7343 177.07 87.5631 176.77 88.0127C176.468 88.4624 175.693 89.3506 175.048 89.9883C174.403 90.6261 173.414 91.4371 172.851 91.79C172.288 92.143 171.306 92.6531 170.668 92.9229C170.031 93.1927 169.049 93.5307 168.485 93.6738C167.923 93.8183 167.032 93.9963 166.507 94.0713C165.982 94.1462 164.876 94.208 164.051 94.208C163.226 94.208 162.121 94.1462 161.596 94.0713C161.07 93.9963 160.149 93.8093 159.549 93.6553C158.949 93.4999 158.028 93.1961 157.503 92.9795C156.978 92.7614 156.118 92.324 155.593 92.0078C155.068 91.6916 154.469 91.2909 154.263 91.1191C154.057 90.9466 153.858 90.8065 153.819 90.8057C153.783 90.8057 153.28 90.2989 152.706 89.6816C152.132 89.0629 151.435 88.2192 151.156 87.8076C150.878 87.3947 150.457 86.6735 150.223 86.2061C149.987 85.7371 149.613 84.8174 149.392 84.1621C149.169 83.5052 148.894 82.3861 148.778 81.6748C148.662 80.962 148.566 79.6129 148.566 78.6768C148.565 77.7392 148.659 76.4217 148.776 75.7471C148.894 75.0725 149.175 73.9685 149.401 73.2939C149.628 72.6194 150.055 71.6064 150.35 71.0449C150.644 70.4822 151.186 69.6242 151.553 69.1377C151.918 68.6498 152.67 67.819 153.223 67.293C153.776 66.7656 154.597 66.085 155.047 65.7783C155.497 65.4731 156.248 65.0297 156.718 64.7939C157.187 64.5595 158.108 64.185 158.765 63.9629C159.421 63.7408 160.481 63.4709 161.118 63.3633C161.757 63.2556 163 63.1611 163.881 63.1543ZM113.026 63.0957C113.251 63.0725 114.204 63.0672 115.142 63.085C116.08 63.1041 117.308 63.1882 117.87 63.2754C118.434 63.3613 119.492 63.5811 120.224 63.7637C120.955 63.945 121.969 64.2828 122.475 64.5117C122.981 64.7421 123.764 65.1935 124.214 65.5137C124.664 65.8353 125.3 66.3981 125.627 66.7646C125.954 67.1326 126.4 67.7405 126.615 68.1152C126.832 68.49 127.161 69.2556 127.347 69.8184C127.532 70.3798 127.747 71.2387 127.823 71.7266C127.9 72.2131 127.999 76.1378 128.041 80.4482C128.085 84.7575 128.17 88.8056 128.231 89.4434C128.293 90.0793 128.45 90.8146 128.579 91.0781C128.709 91.3398 128.999 91.7393 129.632 92.373L129.125 93.4639H126.328C124.354 93.4639 123.331 93.4074 122.85 93.2725C122.475 93.1689 121.743 92.8629 121.224 92.5918C120.492 92.2116 119.991 91.7931 119.006 90.7383C118.306 89.9887 117.715 89.4052 117.693 89.4434C117.671 89.4815 117.475 89.7879 117.259 90.125C117.04 90.4616 116.613 91.005 116.309 91.332C116.004 91.659 115.48 92.1293 115.142 92.376C114.805 92.624 114.159 93.0099 113.709 93.2334C113.259 93.4583 112.522 93.7426 112.071 93.8652C111.616 93.992 110.467 94.1242 109.479 94.165C108.003 94.2277 107.477 94.1922 106.342 93.9551C105.591 93.7984 104.548 93.4658 104.022 93.2178C103.417 92.9303 102.781 92.4808 102.283 91.9902C101.851 91.5624 101.315 90.8472 101.089 90.3975C100.864 89.9478 100.557 89.1342 100.407 88.5918C100.227 87.9418 100.134 87.1824 100.133 86.377C100.133 85.7025 100.226 84.798 100.339 84.3672C100.451 83.9352 100.705 83.2597 100.903 82.8672C101.101 82.4733 101.522 81.8138 101.837 81.4023C102.152 80.9894 102.895 80.2614 103.488 79.7832C104.082 79.3049 104.968 78.6823 105.455 78.3975C105.944 78.1126 106.956 77.6341 107.706 77.333C108.457 77.0331 110.576 76.3166 112.413 75.7402C114.252 75.1653 115.985 74.5794 116.267 74.4375C116.548 74.2958 116.855 74.0407 116.949 73.873C117.066 73.6617 117.114 72.9503 117.099 71.5908C117.088 70.5033 117.008 68.9082 116.922 68.0469C116.825 67.0889 116.659 66.2533 116.497 65.9004C116.329 65.5325 116.07 65.2378 115.789 65.0947C115.531 64.9626 115.032 64.8704 114.596 64.873C114.184 64.8758 113.661 64.9715 113.436 65.0859C113.211 65.2018 112.893 65.4386 112.729 65.6143C112.566 65.7901 112.365 66.1024 112.286 66.3096C112.206 66.5154 112.011 67.6495 111.854 68.8311C111.698 70.0108 111.457 71.2831 111.317 71.6582C111.163 72.0725 110.835 72.5556 110.477 72.8936C110.121 73.23 109.593 73.5485 109.139 73.7012C108.682 73.8552 107.988 73.9553 107.364 73.958C106.738 73.9607 106.078 73.8706 105.659 73.7275C105.284 73.5967 104.702 73.2912 104.363 73.0459C103.932 72.7338 103.617 72.3381 103.305 71.7207C103.061 71.2356 102.823 70.5641 102.776 70.2275C102.73 69.8896 102.76 69.3074 102.845 68.9326C102.929 68.5579 103.182 67.9602 103.408 67.6045C103.637 67.242 104.313 66.563 104.943 66.0615C105.563 65.5696 106.622 64.8989 107.297 64.5732C107.972 64.2462 108.986 63.8575 109.548 63.709C110.111 63.5591 111.032 63.3708 111.594 63.2891C112.157 63.206 112.801 63.1203 113.026 63.0957ZM64.2871 63.1572C65.1683 63.1477 66.366 63.2073 66.9473 63.2891C67.5284 63.3708 68.5269 63.591 69.1641 63.7764C69.8024 63.9617 70.8147 64.3417 71.415 64.6211C72.0153 64.9005 72.9925 65.4632 73.5859 65.8721C74.178 66.2809 75.1916 67.1747 75.8369 67.8574C76.4944 68.5551 77.3062 69.6003 77.6855 70.2422C78.058 70.8704 78.5291 71.8152 78.7324 72.3398C78.9357 72.8644 79.2314 73.7842 79.3896 74.3838C79.5465 74.9833 79.747 76.21 79.833 77.1094C79.9517 78.3332 79.9515 79.1391 79.8369 80.3125C79.7523 81.1737 79.5248 82.4927 79.3311 83.2422C79.1373 83.9917 78.7171 85.1574 78.3965 85.832C78.0745 86.5066 77.5409 87.4565 77.208 87.9443C76.8764 88.4309 76.2357 89.22 75.7842 89.6982C75.3326 90.1752 74.5646 90.8662 74.0762 91.2314C73.5892 91.5966 72.7295 92.1359 72.166 92.4316C71.604 92.726 70.5904 93.1478 69.915 93.3672C69.2397 93.5866 68.2567 93.8515 67.7314 93.9551C67.1433 94.0709 65.8846 94.1445 64.458 94.1445C63.0311 94.1445 61.7717 94.0709 61.1836 93.9551C60.6583 93.8515 59.6753 93.5866 59 93.3672C58.3247 93.1478 57.3124 92.726 56.749 92.4316C56.1869 92.1359 55.3272 91.596 54.8389 91.2295C54.3518 90.8641 53.5249 90.1133 53.0039 89.5615C52.4828 89.0082 51.7787 88.1281 51.4404 87.6035C51.1008 87.0789 50.5994 86.1276 50.3252 85.4912C50.051 84.8534 49.6942 83.8103 49.5332 83.1738C49.3736 82.536 49.175 81.4635 49.0918 80.7891C49.0018 80.0681 48.9755 78.8596 49.0273 77.8594C49.0751 76.9218 49.2296 75.6335 49.3701 74.9971C49.512 74.3592 49.8342 73.2868 50.0879 72.6123C50.3417 71.9377 50.8547 70.8704 51.2285 70.2422C51.6065 69.6057 52.4258 68.5496 53.0791 67.8574C53.7229 67.1748 54.7366 66.281 55.3301 65.8721C55.9221 65.4633 56.9604 64.8731 57.6357 64.5596C58.311 64.2462 59.3547 63.8603 59.9551 63.7021C60.5552 63.5441 61.4149 63.3608 61.8652 63.2939C62.3155 63.2285 63.4058 63.1654 64.2871 63.1572ZM93.9268 57.1543C94.0021 57.1498 94.2328 57.452 94.4385 57.8262C94.8121 58.5031 94.8135 58.522 94.8135 63.8223L96.4629 63.8564C98.0384 63.8878 98.1244 63.9057 98.3877 64.2314C98.5963 64.4902 98.651 64.7218 98.6143 65.2012C98.5843 65.5895 98.4597 65.9451 98.292 66.125C98.0437 66.3935 97.8853 66.4199 95.0176 66.4062L94.917 66.9199C94.8624 67.202 94.8158 72.0172 94.8145 77.6211C94.8131 84.792 94.8592 88.0192 94.9697 88.5234C95.072 88.9921 95.2606 89.3666 95.5156 89.6133C95.8526 89.9363 96.0156 89.9883 96.7236 89.9883C97.1739 89.9883 97.8533 90.0652 98.2324 90.1592C98.8733 90.3172 98.9168 90.3525 98.835 90.6699C98.7858 90.8566 98.6699 91.1942 98.5771 91.4189C98.4844 91.6438 98.0138 92.1276 97.5322 92.4941C97.0493 92.8607 96.3478 93.3029 95.9727 93.4746C95.547 93.6694 94.7915 93.8407 93.9609 93.9307C93.2297 94.0111 92.016 94.0771 91.2656 94.0771C90.5154 94.0771 89.4259 93.9783 88.8447 93.8584C88.2635 93.7398 87.4581 93.4796 87.0557 93.2793C86.6532 93.0803 86.0463 92.6412 85.708 92.3047C85.3697 91.9667 84.9383 91.3855 84.75 91.0107C84.5617 90.636 84.3121 90.0524 84.1934 89.7158C84.0051 89.1802 83.9723 87.6764 83.8945 66.752L83.1455 66.5137C82.7352 66.3815 82.3439 66.1679 82.2754 66.0371C82.2086 65.905 82.1405 65.6447 82.124 65.458C82.109 65.2699 82.1022 64.948 82.1104 64.7422C82.1199 64.5146 82.2471 64.2873 82.4326 64.166C82.602 64.0556 83.3232 63.8648 84.0352 63.7422C84.7487 63.6195 85.8541 63.3274 86.4912 63.0957C87.1297 62.8626 88.0803 62.391 88.6055 62.0449C89.1307 61.6988 89.9191 61.0527 90.3584 60.6084C90.7977 60.1641 91.497 59.3192 91.9131 58.7305C92.4818 57.9226 92.8066 57.5978 93.2295 57.4111C93.5377 57.2749 93.8518 57.1597 93.9268 57.1543ZM26.8027 55.7354C28.9788 55.7463 31.3737 55.8213 32.124 55.9004C32.8743 55.9794 34.1945 56.1675 35.0566 56.3174C35.9201 56.4673 37.1781 56.7504 37.8535 56.9453C38.5288 57.1402 39.5119 57.4839 40.0371 57.7061C40.5622 57.9295 41.4211 58.3667 41.9463 58.6787C42.4715 58.9908 43.3537 59.6777 43.9062 60.2051C44.4588 60.7325 45.1974 61.5945 45.5508 62.1191C45.9028 62.6438 46.3839 63.5635 46.6172 64.1631C46.8518 64.7628 47.173 65.897 47.334 66.6846C47.544 67.7147 47.625 68.6099 47.625 69.8867C47.6236 70.9061 47.5351 72.1208 47.415 72.749C47.3004 73.3487 47.0509 74.3137 46.8613 74.8955C46.6731 75.476 46.3566 76.2732 46.1602 76.667C45.9637 77.0595 45.5419 77.7505 45.2227 78.2002C44.9034 78.6499 44.3422 79.296 43.9766 79.6367C43.6096 79.9774 43.0355 80.4432 42.6973 80.6748C42.3603 80.9051 41.6847 81.2932 41.1963 81.5371C40.7094 81.781 39.7889 82.1518 39.1504 82.3604C38.5134 82.5688 37.4696 82.838 36.8311 82.958C36.194 83.0779 34.2905 83.2968 32.6016 83.4453C30.9142 83.5938 29.2102 83.717 28.0996 83.7197L28.1006 86.8193C28.1006 88.5242 28.158 90.1344 28.2275 90.3975C28.3 90.67 28.5767 91.0732 28.874 91.3389C29.1605 91.5937 29.5494 91.8512 29.7363 91.9111C29.9246 91.9711 30.2461 92.2386 30.4521 92.5029C30.658 92.7685 30.8128 93.0096 30.7939 93.0371C30.7749 93.0657 30.5605 93.1883 30.3164 93.3096C29.9235 93.5058 29.0323 93.5312 22.4375 93.5312C16.1023 93.5312 14.9422 93.5015 14.5928 93.3271C14.3677 93.214 14.1836 93.0448 14.1836 92.9521C14.1842 92.8575 14.4589 92.4433 14.7969 92.0322C15.1338 91.6193 15.5787 91.0417 16.1611 90.2119V58.5264L15.874 58.1416C15.7157 57.9304 15.3266 57.6037 15.0088 57.417C14.6909 57.2289 14.3523 56.9221 14.2568 56.7354C14.0987 56.4276 14.1162 56.3645 14.4395 56.0947C14.7873 55.8044 14.9081 55.7958 18.8223 55.7549C21.0364 55.7317 24.6268 55.7231 26.8027 55.7354ZM62.168 65.3213C61.8053 65.3214 61.3704 65.4413 61.0254 65.6387C60.7171 65.8144 60.2747 66.2275 60.04 66.5586C59.7699 66.9415 59.5327 67.5335 59.3867 68.1836C59.234 68.865 59.1594 69.7966 59.1631 70.9775C59.1672 71.9519 59.2404 73.3921 59.3291 74.1797C59.4164 74.9659 59.6401 76.5451 59.8242 77.6885C60.0084 78.8305 60.3501 80.5482 60.582 81.5049C60.814 82.4602 61.2792 84.0695 61.6162 85.082C61.9518 86.0932 62.46 87.4131 62.7451 88.0127C63.0289 88.6123 63.5772 89.5471 63.9619 90.0908C64.3466 90.6332 64.9229 91.2656 65.2422 91.4932C65.5614 91.7221 66.053 91.9672 66.334 92.0381C66.664 92.1225 67.0388 92.1194 67.3906 92.0322C67.6908 91.9573 68.1357 91.7204 68.3799 91.5078C68.6241 91.2952 68.9681 90.7885 69.1455 90.3838C69.3351 89.9504 69.5571 89 69.6826 88.0801C69.8818 86.6372 69.8804 86.3168 69.6689 84.0605C69.5421 82.7114 69.2861 80.6868 69.1006 79.5625C68.915 78.4382 68.5804 76.7822 68.3594 75.8828C68.1383 74.9834 67.7622 73.6342 67.5234 72.8848C67.2833 72.1352 66.8002 70.9087 66.4482 70.1592C66.0962 69.4096 65.4941 68.2741 65.1094 67.6377C64.7233 67 64.2047 66.2834 63.9551 66.0449C63.7068 65.8051 63.3329 65.5448 63.127 65.4658C62.9208 65.3855 62.4884 65.3213 62.168 65.3213ZM161.769 65.2803C161.438 65.2804 160.947 65.4076 160.627 65.5752C160.309 65.7429 159.878 66.1435 159.638 66.4951C159.403 66.8384 159.154 67.3954 159.084 67.7334C159.014 68.07 158.887 68.8681 158.803 69.5059C158.718 70.1422 158.668 70.9965 158.691 71.4053L158.733 72.1465L158.802 72.7422C158.802 72.9482 158.925 74.0987 159.078 75.2979C159.23 76.4972 159.54 78.3983 159.765 79.5225C159.99 80.6468 160.364 82.241 160.596 83.0654C160.828 83.8899 161.228 85.1466 161.485 85.8594C161.743 86.5705 162.172 87.5826 162.438 88.1074C162.706 88.6321 163.187 89.4302 163.511 89.8799C163.833 90.3296 164.333 90.9232 164.622 91.2012C164.91 91.4778 165.391 91.807 165.691 91.9297C166.053 92.0781 166.421 92.1257 166.782 92.0713C167.108 92.0222 167.543 91.8109 167.859 91.5479C168.153 91.3039 168.496 90.8906 168.624 90.6289C168.754 90.3659 168.974 89.6914 169.114 89.1299C169.313 88.334 169.366 87.669 169.347 86.1318C169.334 85.0444 169.225 83.2974 169.104 82.248C168.984 81.1987 168.762 79.6653 168.609 78.8408C168.458 78.0163 168.148 76.6055 167.922 75.7061C167.695 74.8067 167.278 73.3652 166.994 72.5039C166.71 71.6413 166.194 70.3681 165.846 69.6758C165.499 68.9821 164.961 68.0007 164.654 67.4951C164.346 66.9882 163.931 66.4005 163.733 66.1865C163.534 65.974 163.141 65.6831 162.86 65.54C162.579 65.3969 162.088 65.2803 161.769 65.2803ZM116.853 77.3623C116.742 77.3241 115.918 77.9436 114.912 78.8213C113.952 79.6591 112.935 80.6511 112.652 81.0234C112.186 81.6394 112.158 81.7234 112.345 81.9414L112.176 82.3213C111.986 82.2177 111.9 82.2654 111.756 82.5596C111.656 82.7626 111.488 83.2973 111.383 83.7471C111.276 84.1965 111.191 84.7779 111.189 85.041C111.189 85.3026 111.249 85.7472 111.324 86.0293C111.398 86.31 111.629 86.7342 111.835 86.9727C112.041 87.2098 112.456 87.5145 112.756 87.6494C113.07 87.7911 113.621 87.8965 114.052 87.8965C114.495 87.8965 115.026 87.793 115.348 87.6445C115.648 87.5056 116.058 87.2153 116.262 87C116.464 86.7847 116.719 86.3935 116.828 86.1318C116.951 85.8402 117.066 84.8861 117.127 83.6787C117.18 82.5912 117.184 80.7406 117.134 79.5645C117.064 77.9143 117 77.4128 116.853 77.3623ZM28.0996 80.8574C30.3675 80.7838 30.7744 80.7062 31.373 80.4297C31.7864 80.2376 32.3913 79.8126 32.7188 79.4814C33.0803 79.1176 33.5459 78.3993 33.9033 77.6553C34.2267 76.9807 34.6432 75.906 34.8301 75.2695C35.017 74.6317 35.2741 73.4051 35.4023 72.5439C35.581 71.3421 35.6192 70.4191 35.5674 68.5918C35.5101 66.5889 35.4418 65.9892 35.1377 64.8447C34.9399 64.0952 34.5151 62.9295 34.1973 62.2549C33.8112 61.4387 33.3677 60.7625 32.8711 60.2324C32.3665 59.6957 31.836 59.3035 31.2373 59.0215C30.5524 58.6985 30.0992 58.5879 29.2451 58.5361L28.1396 58.4688L28.0996 80.8574ZM120.053 13.0059C120.518 12.9922 120.907 13.0584 121.076 13.1797C121.344 13.3705 121.35 13.5783 121.428 23.0293C121.495 31.2027 121.542 32.8739 121.734 33.9424C121.86 34.6347 122.084 35.5251 122.231 35.9189C122.38 36.3141 122.731 36.8594 123.016 37.1387C123.299 37.4153 123.777 37.7451 124.077 37.8691C124.377 37.9931 124.961 38.0937 125.373 38.0938C125.786 38.0938 126.34 38.0055 126.602 37.8965C126.865 37.7874 127.285 37.5184 127.536 37.3018C127.787 37.0836 128.147 36.5687 128.337 36.1572C128.527 35.7443 128.771 35.008 128.88 34.5215C129.037 33.8221 129.093 31.9462 129.145 25.6631C129.187 20.4309 129.161 17.4821 129.068 17.0781C128.977 16.6788 128.771 16.3171 128.481 16.0459C128.235 15.8169 127.896 15.5869 127.727 15.5352C127.557 15.4846 127.328 15.258 127.215 15.0332C127.103 14.8084 127.011 14.5316 127.011 14.4199C127.011 14.3068 127.165 14.1234 127.352 14.0117C127.574 13.8782 128.513 13.7373 130.046 13.6064C131.341 13.4961 133.904 13.3066 135.742 13.1826C138.226 13.0164 139.164 12.9986 139.392 13.1104C139.561 13.1935 139.823 13.4611 139.975 13.7051C140.244 14.1408 140.248 14.3349 140.22 26.4814C140.195 37.5281 140.215 38.8926 140.413 39.5645C140.548 40.0182 140.854 40.5685 141.191 40.9609C141.495 41.3163 141.745 41.699 141.745 41.8125C141.745 41.9242 141.576 42.1193 141.37 42.2461C141.04 42.4478 140.675 42.466 138.334 42.3965C136.457 42.3406 135.433 42.2504 134.855 42.0869C134.405 41.9602 133.668 41.6645 133.218 41.4287C132.768 41.1942 132.028 40.6307 131.574 40.1797C131.12 39.7286 130.567 39.0363 129.943 37.9258L129.364 38.7793C129.045 39.2481 128.522 39.905 128.204 40.2402C127.885 40.5741 127.317 41.0946 126.942 41.3984C126.567 41.7009 125.831 42.147 125.306 42.3896C124.78 42.6322 123.874 42.923 123.293 43.0361C122.712 43.1492 121.79 43.2441 121.246 43.2441C120.702 43.2441 119.736 43.1796 119.098 43.1006C118.461 43.0215 117.569 42.8635 117.119 42.749C116.669 42.6345 115.902 42.3486 115.414 42.1143C114.818 41.8267 114.185 41.3497 113.483 40.6602C112.655 39.8452 112.323 39.3922 111.882 38.4736C111.575 37.8359 111.199 36.8252 111.048 36.2256C110.896 35.626 110.712 34.522 110.639 33.7725C110.565 33.0229 110.469 28.9433 110.426 24.709C110.356 17.8766 110.323 16.9568 110.118 16.5342C109.993 16.2725 109.674 15.9221 109.411 15.7559C109.149 15.5883 108.796 15.3581 108.627 15.2422C108.458 15.1277 108.319 14.8942 108.317 14.7266C108.315 14.5576 108.452 14.2816 108.624 14.1113C108.879 13.8565 109.128 13.7893 110.025 13.7334C110.626 13.6966 112.468 13.5693 114.118 13.4521C115.769 13.3349 117.611 13.1914 118.211 13.1328C118.811 13.0756 119.641 13.0181 120.053 13.0059ZM174.692 4C174.767 3.99864 174.902 4.04276 174.989 4.09863C175.078 4.15364 175.216 4.36693 175.296 4.57227C175.398 4.83256 175.445 10.1018 175.446 21.8125C175.449 37.8803 175.461 38.7024 175.699 39.2217C175.837 39.5212 176.066 39.87 176.208 39.9971C176.35 40.1238 176.697 40.3232 176.978 40.4404C177.259 40.5576 177.544 40.791 177.609 40.96C177.679 41.1371 177.679 41.3673 177.609 41.5049C177.544 41.6357 177.258 41.7991 176.978 41.8672C176.696 41.9367 175.515 42.0326 174.352 42.083C173.188 42.1321 170.855 42.2593 169.167 42.3643C167.478 42.4705 165.837 42.5596 165.518 42.5596C165.065 42.5609 164.894 42.4937 164.74 42.2539C164.631 42.0845 164.492 41.4405 164.434 40.8223C164.374 40.2036 164.294 39.6976 164.256 39.7002C164.218 39.7016 163.789 40.047 163.301 40.4668C162.812 40.8865 162.107 41.4299 161.731 41.6738C161.356 41.9191 160.651 42.2819 160.163 42.4795C159.675 42.6771 158.831 42.9306 158.287 43.041C157.743 43.1514 156.821 43.2426 156.24 43.2412C155.659 43.2412 154.785 43.1769 154.297 43.1006C153.808 43.0243 153.011 42.8319 152.522 42.6738C152.034 42.5157 151.267 42.2029 150.817 41.9795C150.367 41.7547 149.724 41.3795 149.387 41.1465C149.048 40.9122 148.461 40.4148 148.077 40.04C147.694 39.6653 147.082 38.8974 146.719 38.3359C146.355 37.7732 145.848 36.8849 145.59 36.3604C145.332 35.8357 144.94 34.9161 144.719 34.3164C144.498 33.7168 144.172 32.6421 143.993 31.9307C143.814 31.2193 143.596 29.9621 143.509 29.1377C143.412 28.2355 143.386 27.0409 143.443 26.1387C143.495 25.3141 143.655 23.9966 143.797 23.209C143.94 22.4214 144.203 21.349 144.382 20.8242C144.561 20.2996 144.909 19.4709 145.154 18.9844C145.401 18.4978 145.831 17.7616 146.112 17.3486C146.392 16.9358 146.895 16.2927 147.23 15.918C147.565 15.5432 148.295 14.8914 148.852 14.4717C149.407 14.0507 150.23 13.5224 150.681 13.2988C151.131 13.074 151.868 12.7634 152.318 12.6094C152.769 12.4554 153.567 12.2534 154.092 12.1621C154.71 12.0545 155.672 12.024 156.82 12.0771C157.944 12.1289 158.918 12.2547 159.48 12.4209C159.969 12.564 160.766 12.8499 161.255 13.0557C161.743 13.2629 162.572 13.6935 163.097 14.0137C163.622 14.3339 164.097 14.571 164.153 14.541C164.209 14.5109 164.326 14.1653 164.41 13.7715C164.496 13.3776 164.532 12.779 164.494 12.4424C164.454 12.1058 164.29 11.5231 164.126 11.1484C163.962 10.7737 163.464 10.084 163.02 9.61523C162.573 9.14643 162.209 8.67034 162.209 8.55859C162.209 8.44541 162.425 8.17006 162.687 7.94531C162.949 7.7209 163.195 7.53784 163.232 7.53711C163.271 7.53711 164.821 7.13612 166.678 6.64551C168.534 6.15627 170.361 5.65703 170.736 5.53711C171.112 5.41716 171.817 5.13538 172.306 4.90918C172.794 4.683 173.499 4.38589 173.874 4.25098C174.249 4.1149 174.617 4.0017 174.692 4ZM91.4023 12.0527C92.1909 12.0432 93.4489 12.131 94.1992 12.2441C94.9495 12.3586 96.1006 12.6339 96.7568 12.8574C97.4131 13.0796 98.3344 13.4541 98.8037 13.6885C99.2729 13.9242 100.024 14.3645 100.475 14.667C100.925 14.9695 101.804 15.7123 102.428 16.3174C103.051 16.9225 103.856 17.8475 104.218 18.3721C104.579 18.8965 105.059 19.6937 105.285 20.1436C105.51 20.5933 105.879 21.5139 106.103 22.1885C106.326 22.8631 106.596 23.8445 106.699 24.3691C106.815 24.954 106.888 26.2186 106.888 27.6396C106.888 29.0651 106.815 30.3228 106.697 30.9102C106.594 31.4348 106.342 32.3847 106.136 33.0225C105.93 33.6587 105.563 34.5784 105.318 35.0664C105.074 35.5528 104.579 36.3815 104.218 36.9062C103.858 37.4309 103.082 38.3256 102.495 38.8926C101.91 39.4608 101.031 40.1925 100.543 40.5195C100.056 40.8466 99.1962 41.3233 98.6328 41.5781C98.0708 41.8343 97.487 42.1008 97.3369 42.1689C97.186 42.2373 96.4499 42.4512 95.7002 42.6445C94.6401 42.9171 93.8647 43.0103 92.2207 43.0703C90.8538 43.1194 89.6952 43.0856 88.9463 42.9766C88.3091 42.8838 87.2653 42.656 86.627 42.4707C85.9898 42.2853 84.9761 41.9057 84.376 41.625C83.7757 41.3456 82.8868 40.8475 82.3984 40.5205C81.9114 40.1934 81.0163 39.4303 80.4092 38.8252C79.8036 38.2189 79.0394 37.3254 78.7119 36.8389C78.3845 36.3511 77.855 35.4011 77.5371 34.7266C77.2179 34.052 76.7976 32.8863 76.6025 32.1367C76.4061 31.3872 76.1971 30.2832 76.1357 29.6836C76.0757 29.0839 76.0458 27.8876 76.0703 27.0264C76.0949 26.1639 76.2081 24.9689 76.3213 24.3691C76.4332 23.7695 76.6562 22.8791 76.8145 22.3926C76.9727 21.9047 77.3298 21.0165 77.6094 20.417C77.8877 19.8174 78.3833 18.927 78.708 18.4404C79.0342 17.9525 79.8596 17.0016 80.543 16.3271C81.2251 15.6512 82.2455 14.8096 82.8076 14.458C83.3711 14.1051 84.3217 13.605 84.9219 13.3447C85.5221 13.0845 86.5042 12.7437 87.1045 12.5869C87.7047 12.4302 88.5959 12.2506 89.083 12.1865C89.5714 12.1225 90.6152 12.0623 91.4023 12.0527ZM23.9385 4.71191C31.795 4.76915 32.6859 4.79771 34.3066 5.05664C35.2819 5.21333 36.6623 5.49201 37.376 5.67871C38.0881 5.8654 39.1318 6.18502 39.6953 6.38672C40.2573 6.58837 41.0868 6.93685 41.5371 7.16309C41.9873 7.38793 42.6314 7.7603 42.9697 7.98926C43.3067 8.21818 43.8828 8.65372 44.2471 8.95898C44.6127 9.26289 45.2037 9.88035 45.5625 10.3301C45.9199 10.7798 46.4324 11.5463 46.7012 12.0342C46.9685 12.5206 47.3161 13.2876 47.4717 13.7373C47.6285 14.1869 47.8191 14.8299 47.8955 15.168C47.9705 15.5046 48.0874 16.3635 48.1543 17.0762C48.228 17.8666 48.224 18.9543 48.1436 19.8701C48.0699 20.6946 47.8572 21.9829 47.6689 22.7324C47.4793 23.4819 47.0575 24.6468 46.7314 25.3213C46.404 25.9959 45.7991 26.9773 45.3857 27.502C44.9724 28.0266 44.367 28.6743 44.041 28.9414C43.715 29.2085 43.1408 29.6333 42.7656 29.8867C42.3904 30.1416 41.7149 30.5141 41.2646 30.7158C40.8144 30.9175 39.9547 31.2373 39.3545 31.4268C38.7542 31.6162 37.7105 31.864 37.0352 31.9785C36.3601 32.0916 35.4396 32.2194 34.9893 32.2617C34.539 32.304 33.7703 32.37 33.2832 32.4082C32.7947 32.4464 31.66 32.5364 30.7598 32.6113C29.8598 32.6849 29.0154 32.746 28.8838 32.7461C28.6614 32.7488 28.6473 32.9846 28.6787 36.0537C28.7101 39.1475 28.7307 39.3882 29.002 39.835C29.1711 40.1129 29.564 40.4543 29.9473 40.6533C30.3073 40.8399 30.7441 41.1624 30.9189 41.3682C31.0936 41.5739 31.2373 41.8049 31.2373 41.8799C31.2367 41.9549 31.0213 42.1091 30.7598 42.2207C30.3546 42.3938 29.1674 42.4248 22.9834 42.4248C15.9578 42.4248 15.6635 42.4153 14.5928 41.8799L14.8652 41.4707C15.0153 41.2458 15.3077 40.976 15.5137 40.8711C15.7197 40.7648 16.0256 40.5348 16.1934 40.3604C16.3598 40.1845 16.5599 39.8255 16.6377 39.5625C16.7304 39.2434 16.7766 33.8106 16.7725 7.87695L16.4668 7.26367C16.2418 6.81154 16.0006 6.56871 15.5479 6.33984C15.2095 6.16949 14.8568 5.87773 14.7627 5.69238C14.6102 5.39025 14.631 5.31926 14.9678 5.00195L15.3428 4.64844L23.9385 4.71191ZM68.8232 12.0488C69.3484 12.0434 70.178 12.1224 70.665 12.2246C71.1535 12.3268 71.8592 12.5639 72.2344 12.752C72.6096 12.9401 73.2235 13.3669 73.5986 13.7021C74.0242 14.081 74.4604 14.6633 74.7578 15.2451C75.2188 16.1444 75.2354 16.2306 75.2354 17.6846C75.2353 19.1042 75.2112 19.2395 74.7979 20.0762C74.5564 20.5626 74.1567 21.1714 73.9111 21.4277C73.6642 21.6853 73.2477 22.032 72.9844 22.1982C72.7224 22.3645 72.17 22.6065 71.7568 22.7373C71.2098 22.9104 70.7103 22.9582 69.915 22.916C69.091 22.871 68.6728 22.774 68.209 22.5205C67.8271 22.3106 67.4245 21.9262 67.1436 21.5039C66.8953 21.1304 66.5672 20.3956 66.4131 19.8711C66.2589 19.3465 66.0239 18.7021 65.8916 18.4404C65.7593 18.1775 65.4908 17.8858 65.293 17.793C65.0965 17.6989 64.7505 17.623 64.5254 17.623C64.3002 17.6232 63.932 17.7141 63.707 17.8271C63.482 17.9389 63.1974 18.2307 63.0732 18.4746C62.9395 18.7376 62.8067 19.468 62.748 20.2803C62.6921 21.0298 62.6404 25.4456 62.6309 30.0928C62.6213 35.3686 62.6661 38.73 62.752 39.0527C62.827 39.3333 63.0577 39.7558 63.2637 39.9902C63.4696 40.2259 63.8694 40.5328 64.1504 40.6719C64.4314 40.8122 64.7553 40.9268 64.8672 40.9268C64.9805 40.9271 65.2405 41.1423 65.4463 41.4062C65.6521 41.6704 65.7918 41.908 65.7539 41.9355C65.7171 41.9614 65.4864 42.0828 65.2422 42.2041C64.8493 42.4003 63.972 42.4262 57.5342 42.4248C50.5135 42.4248 50.2536 42.4154 49.8252 42.1523C49.5811 42.0038 49.3818 41.8493 49.3818 41.8125C49.3825 41.7735 49.5207 41.5587 49.6895 41.333C49.8586 41.1055 50.0578 40.9199 50.1328 40.9199C50.2083 40.9181 50.4808 40.752 50.7383 40.5479C50.9961 40.3434 51.2885 39.9769 51.3867 39.7344C51.5285 39.382 51.565 37.2536 51.5664 29.4453C51.5664 19.9356 51.558 19.5798 51.2988 19.0537C51.1092 18.6681 50.8188 18.3857 50.3086 18.0928C49.8679 17.8393 49.5334 17.5366 49.4502 17.3145C49.3344 17.0054 49.3662 16.8962 49.6553 16.6006C49.9204 16.328 51.2374 15.8402 55.5557 14.415C59.9435 12.9667 61.1717 12.6094 61.3877 12.7168C61.5376 12.7917 61.7137 12.9903 61.7793 13.1592C61.8434 13.3268 62.0124 14.1876 62.1543 15.0693C62.2948 15.9523 62.4262 16.6713 62.4453 16.6699C62.4649 16.6691 62.7712 16.1924 63.127 15.6123C63.483 15.0304 64.0836 14.2498 64.4629 13.875C64.8408 13.5002 65.4862 13.0134 65.8955 12.7939C66.3048 12.5732 66.9179 12.3188 67.2549 12.2275C67.5934 12.1349 68.2982 12.0543 68.8232 12.0488ZM89.2197 14.2129C88.8827 14.2143 88.4214 14.3125 88.1963 14.4297C87.9712 14.5469 87.6647 14.7559 87.5146 14.8936C87.3646 15.0312 87.0652 15.5026 86.8496 15.9414C86.5578 16.5327 86.4283 17.0509 86.3438 17.9639C86.2797 18.6482 86.2849 20.3322 86.3545 21.7793C86.4241 23.2033 86.6087 25.2269 86.7656 26.2764C86.973 27.6651 87.4982 30.4357 87.6592 30.5352C87.7015 30.8159 88.0628 32.0283 88.4639 33.2275C88.8635 34.4265 89.4893 36.1021 89.8535 36.9512C90.2178 37.8016 90.7312 38.7783 90.9932 39.123C91.3219 39.5536 91.778 39.9088 92.46 40.2686C93.1828 40.65 93.6138 40.7909 94.0625 40.791C94.5673 40.791 94.7683 40.7086 95.1885 40.3311C95.4694 40.0803 95.8951 39.5127 96.1338 39.0713C96.3793 38.6175 96.632 37.8839 96.7139 37.3838C96.793 36.8959 96.8568 36.0069 96.8555 35.4072C96.8554 34.8074 96.7666 33.4583 96.6602 32.4092C96.5524 31.3598 96.3675 29.8264 96.2461 29.002C96.126 28.1774 95.8376 26.6742 95.6084 25.6631C95.3778 24.6505 94.9484 23.0563 94.6523 22.1201C94.3563 21.1825 93.6889 19.5582 93.1719 18.5088C92.6535 17.4596 91.9499 16.2331 91.6074 15.7832C91.2664 15.3335 90.7257 14.7955 90.4092 14.5869C89.9904 14.3117 89.6671 14.2088 89.2197 14.2129ZM159.346 15.5391C158.833 15.5377 158.406 15.633 157.994 15.8428C157.663 16.0118 157.218 16.3488 157.005 16.5928C156.792 16.8368 156.44 17.3888 156.222 17.8193C156.005 18.25 155.732 18.9712 155.617 19.4209C155.503 19.871 155.268 21.0357 155.098 22.0098C154.837 23.5034 154.788 24.2625 154.791 26.8477C154.792 29.4329 154.84 30.1706 155.097 31.5498C155.264 32.4492 155.556 33.6443 155.747 34.207C155.937 34.7685 156.316 35.5971 156.59 36.0469C156.863 36.4966 157.334 37.1329 157.637 37.46C157.94 37.787 158.432 38.1772 158.732 38.3271C159.032 38.4783 159.523 38.6021 159.823 38.6035C160.123 38.6062 160.568 38.5676 160.812 38.5186C161.224 38.4382 161.256 38.3922 161.256 37.8867L162.108 37.7559C162.164 37.7531 162.398 37.4898 162.626 37.1709C162.854 36.8519 163.218 36.1623 163.437 35.6377C163.653 35.1129 163.923 34.1631 164.036 33.5254C164.148 32.8875 164.348 31.3542 164.479 30.1182C164.687 28.137 164.694 27.6177 164.543 25.7578C164.447 24.5953 164.286 23.1241 164.183 22.4863C164.08 21.8485 163.865 20.8986 163.704 20.374C163.543 19.8494 163.176 18.9599 162.887 18.3984C162.598 17.8357 162.098 17.0754 161.774 16.7061C161.453 16.3368 160.943 15.9245 160.643 15.7881C160.333 15.6491 159.771 15.5404 159.346 15.5391ZM29.7295 7.39355C28.9097 7.33905 28.6866 7.36522 28.6729 7.51367C28.6727 7.51607 28.6727 7.51896 28.6729 7.52148L28.6514 10.291C28.6527 29.1374 28.6665 29.7136 28.8916 29.7627C29.0228 29.7913 29.6215 29.7591 30.2217 29.6924C31.0375 29.5997 31.5165 29.4583 32.1182 29.1299C32.5616 28.8873 33.2313 28.351 33.6064 27.9395C33.9829 27.5266 34.4954 26.7609 34.7451 26.2363C34.9948 25.7116 35.3543 24.6685 35.5439 23.9189C35.7336 23.1694 35.9488 22.0653 36.0225 21.4658C36.0961 20.866 36.1562 19.6848 36.1562 18.8428C36.1562 17.9992 36.0619 16.5883 35.9473 15.708C35.8326 14.8263 35.58 13.5846 35.3877 12.9482C35.1953 12.3105 34.8163 11.3299 34.5449 10.7686C34.2134 10.0776 33.7861 9.4779 33.2295 8.92188C32.6347 8.32638 32.1753 8.00727 31.5859 7.77832C31.1017 7.59029 30.3434 7.43312 29.7295 7.39355Z" fill="#C58A7F"/>
</svg>
